<svg width="24" height="24" viewBox="0 0 24 24" fill="none" xmlns="http://www.w3.org/2000/svg">
<path d="M9 21.6752H15C20 21.6752 22 19.7397 22 14.901V9.09451C22 4.2558 20 2.32031 15 2.32031H9C4 2.32031 2 4.2558 2 9.09451V14.901C2 19.7397 4 21.6752 9 21.6752Z" stroke="#292D32" stroke-width="1.5" stroke-linecap="round" stroke-linejoin="round"/>
<path d="M9 10.0624C10.1046 10.0624 11 9.19583 11 8.12689C11 7.05795 10.1046 6.19141 9 6.19141C7.89543 6.19141 7 7.05795 7 8.12689C7 9.19583 7.89543 10.0624 9 10.0624Z" stroke="#292D32" stroke-width="1.5" stroke-linecap="round" stroke-linejoin="round"/>
<path d="M2.67188 18.7243L7.60187 15.5211C8.39187 15.0082 9.53187 15.0663 10.2419 15.6566L10.5719 15.9372C11.3519 16.5856 12.6119 16.5856 13.3919 15.9372L17.5519 12.4824C18.3319 11.834 19.5919 11.834 20.3719 12.4824L22.0019 13.8372" stroke="#292D32" stroke-width="1.5" stroke-linecap="round" stroke-linejoin="round"/>
</svg>
