<svg width="28" height="28" viewBox="0 0 28 28" fill="none" xmlns="http://www.w3.org/2000/svg">
<path d="M25.4404 11.715H24.5007V11.6666H14.0007V16.3333H20.5941C19.6322 19.0498 17.0474 20.9999 14.0007 20.9999C10.1349 20.9999 7.00065 17.8657 7.00065 13.9999C7.00065 10.1342 10.1349 6.99992 14.0007 6.99992C15.7851 6.99992 17.4085 7.67309 18.6446 8.77267L21.9445 5.47275C19.8608 3.53084 17.0737 2.33325 14.0007 2.33325C7.55773 2.33325 2.33398 7.557 2.33398 13.9999C2.33398 20.4428 7.55773 25.6666 14.0007 25.6666C20.4436 25.6666 25.6673 20.4428 25.6673 13.9999C25.6673 13.2177 25.5868 12.4541 25.4404 11.715Z" fill="#FFC107"/>
<path d="M3.67773 8.56967L7.51082 11.3808C8.54798 8.81292 11.0598 6.99992 13.9992 6.99992C15.7837 6.99992 17.4071 7.67309 18.6432 8.77267L21.9431 5.47275C19.8594 3.53084 17.0722 2.33325 13.9992 2.33325C9.51807 2.33325 5.6319 4.86317 3.67773 8.56967Z" fill="#FF3D00"/>
<path d="M13.9995 25.6666C17.013 25.6666 19.7512 24.5133 21.8214 22.6379L18.2106 19.5824C16.9999 20.5031 15.5205 21.0011 13.9995 20.9999C10.965 20.9999 8.38845 19.065 7.41778 16.3647L3.61328 19.296C5.54411 23.0742 9.46528 25.6666 13.9995 25.6666Z" fill="#4CAF50"/>
<path d="M25.4398 11.7152H24.5V11.6667H14V16.3334H20.5934C20.1333 17.6263 19.3045 18.7561 18.2093 19.5832L18.2111 19.582L21.8219 22.6375C21.5664 22.8697 25.6667 19.8334 25.6667 14.0001C25.6667 13.2178 25.5862 12.4542 25.4398 11.7152Z" fill="#1976D2"/>
</svg>
